<svg version="1.1" xmlns:x="&amp;ns_extend;" xmlns:i="&amp;ns_ai;" xmlns:graph="&amp;ns_graphs;"
     xmlns="http://www.w3.org/2000/svg" xmlns:xlink="http://www.w3.org/1999/xlink" x="0px" y="0px"
     viewBox="61.810279846191406 50.106689453125 163.1171875 191.25146484375"
     style="enable-background:new 0 0 283.4645691 283.4645691;" xml:space="preserve">

    <style type="text/css">
        .st0{fill:#8C50FF;}
        .st1{fill:#AD8104;}
        .st2{fill:#FDE2C5;}
        .st3{fill:#FFFFFF;}
    </style>

    <polygon class="st0" points="116.9177017,58.1066895 77.812233,58.1066895 95.5114517,81.701416 123.4430923,66.8054199"></polygon>
    <polygon class="st1" points="150.3952332,156.3190918 168.0241394,186.8532715 185.6530457,156.3190918"></polygon>
    <polygon class="st0" points="216.9274597,148.3190918 216.9274597,133.6291504 202.2380066,148.3190918"></polygon>
    <polygon class="st0" points="128.3005066,73.2814941 98.3688736,89.2438965 98.3688736,148.3190918 184.58078,148.3190918"></polygon>
    <polygon class="st0" points="196.58078,161.9763184 196.58078,182.7497559 206.9674988,172.3630371"></polygon>
    <path class="st2" d="M141.1569519,156.3190918h-44.478508L74.4391861,194.838623l22.2392578,38.5195312h44.478508 l22.2392578-38.5195312L141.1569519,156.3190918z M132.0104675,217.5256958h-26.1853561L92.73246,194.8485107 l13.0926514-22.6771851h26.1853561l13.0926514,22.6771851L132.0104675,217.5256958z"></path>
    <polygon class="st3" points="118.9177017,180.675293 114.8263321,187.7619019 123.0092545,187.7619019 127.1006851,194.8485107 131.1921082,187.7619019 127.1006851,180.675293"></polygon>
    <path d="M132.0104675,172.1713257h-26.1853561L92.73246,194.8485107l13.0926514,22.6771851h26.1853561l13.0926514-22.6771851 L132.0104675,172.1713257z M127.1006851,194.8485107l-4.0914307-7.0866089h-8.1829224l4.0913696-7.0866089h8.1829834 l4.091423,7.0866089L127.1006851,194.8485107z"></path>
    <path d="M224.9274597,114.3156738l-31.9143066,31.9137573l-72.0954514-96.1227417H61.8102798l28.5585938,38.0707397v63.069519 L65.2009048,194.838623l26.8583984,46.5195312h53.7167892l42.8046875-74.1174316v34.8234863l29.7011719-29.7011719 l-16.0441895-16.0439453h22.6896973V114.3156738z M184.58078,148.3190918H98.3688736V89.2440186l29.931633-15.9624634 L184.58078,148.3190918z M77.812233,58.1066895h39.1054688l6.5253906,8.6987305L95.5114517,81.701416L77.812233,58.1066895z M141.1569519,233.3581543h-44.478508L74.4391861,194.838623l22.2392578-38.5195312h44.4782639l22.239502,38.5195312 L141.1569519,233.3581543z M168.0241394,186.8532715l-17.6289062-30.5341797h32.5283203h2.7294922L168.0241394,186.8532715z M206.9674988,172.3630371L196.58078,182.7497559v-20.7734375L206.9674988,172.3630371z M216.9274597,148.3190918h-14.6894531 l14.6894531-14.6899414V148.3190918z"></path>
</svg>
